<?xml version="1.0" standalone="no"?>
<!DOCTYPE svg PUBLIC "-//W3C//DTD SVG 20010904//EN"
 "http://www.w3.org/TR/2001/REC-SVG-20010904/DTD/svg10.dtd">
<svg version="1.0" xmlns="http://www.w3.org/2000/svg"
 width="256.000000pt" height="256.000000pt" viewBox="0 0 256.000000 256.000000"
 preserveAspectRatio="xMidYMid meet">
<metadata>
Created by potrace 1.14, written by Peter Selinger 2001-2017
</metadata>
<g transform="translate(0.000000,256.000000) scale(0.100000,-0.100000)"
fill="#000000" stroke="none">
<path d="M0 1280 l0 -1280 1280 0 1280 0 0 1280 0 1280 -1280 0 -1280 0 0
-1280z m661 928 c66 -30 145 -101 210 -186 56 -74 111 -180 269 -520 62 -133
117 -239 122 -234 4 4 101 190 214 412 201 395 219 428 228 419 2 -2 45 -283
95 -624 96 -653 111 -734 162 -867 52 -134 148 -218 252 -218 41 0 33 -19 -20
-43 -74 -33 -209 -31 -286 5 -109 51 -220 181 -280 328 -41 98 -72 232 -113
482 -30 187 -39 225 -49 210 -7 -9 -71 -134 -144 -277 -102 -202 -135 -278
-148 -338 -9 -42 -20 -74 -23 -70 -4 5 -85 184 -180 400 -96 216 -175 391
-176 390 -1 -1 -18 -151 -39 -333 -33 -291 -36 -335 -24 -360 10 -20 23 -30
42 -32 15 -2 27 -8 27 -13 0 -5 -68 -9 -160 -9 -100 0 -160 4 -160 10 0 6 11
10 25 10 39 0 72 27 89 73 9 23 38 229 66 456 l50 415 -35 75 c-108 227 -220
360 -315 376 -22 4 -40 10 -40 15 0 11 60 46 112 65 61 22 161 14 229 -17z"/>
</g>
</svg>
